<svg width="24" height="24" viewBox="0 0 24 24" fill="none" xmlns="http://www.w3.org/2000/svg">
<g clip-path="url(#clip0_518_3210)">
<path d="M2.66667 24C1.93333 24 1.30533 23.7391 0.782667 23.2173C0.260889 22.6947 0 22.0667 0 21.3333V2.66667C0 1.93333 0.260889 1.30533 0.782667 0.782667C1.30533 0.260889 1.93333 0 2.66667 0H21.3333C22.0667 0 22.6947 0.260889 23.2173 0.782667C23.7391 1.30533 24 1.93333 24 2.66667V21.3333C24 22.0667 23.7391 22.6947 23.2173 23.2173C22.6947 23.7391 22.0667 24 21.3333 24H2.66667ZM2.66667 21.3333H21.3333V2.66667H2.66667V21.3333Z" fill="#007BFF"/>
<path d="M4.34175 17V7.54545H10.7125V9.19354H6.34069V11.4464H10.3847V13.0945H6.34069V15.3519H10.731V17H4.34175Z" fill="#007BFF"/>
<path d="M13.6675 7.54545L15.9527 14.7287H16.0404L18.3302 7.54545H20.5461L17.2868 17H14.7108L11.447 7.54545H13.6675Z" fill="#007BFF"/>
</g>
<defs>
<clipPath id="clip0_518_3210">
<rect width="24" height="24" fill="white"/>
</clipPath>
</defs>
</svg>
